<?xml version="1.0" standalone="no"?>
<!DOCTYPE svg PUBLIC "-//W3C//DTD SVG 20010904//EN"
 "http://www.w3.org/TR/2001/REC-SVG-20010904/DTD/svg10.dtd">
<svg version="1.0" xmlns="http://www.w3.org/2000/svg"
 width="512.000000pt" height="512.000000pt" viewBox="0 0 512.000000 512.000000"
 preserveAspectRatio="xMidYMid meet">

<g transform="translate(0.000000,512.000000) scale(0.100000,-0.100000)"
fill="#000000" stroke="none">
<path d="M1970 4760 c-444 -22 -727 -90 -927 -223 -86 -57 -208 -184 -270
-278 -163 -253 -281 -663 -393 -1369 -93 -586 -122 -938 -102 -1243 28 -409
130 -677 334 -879 221 -218 552 -339 1073 -393 342 -36 1113 -43 1540 -14 711
47 1128 209 1371 533 155 206 235 520 236 921 0 189 -25 494 -58 710 -8 55
-24 161 -35 235 -72 490 -174 935 -272 1180 -219 553 -515 751 -1207 811 -162
13 -1064 20 -1290 9z m995 -430 c451 -12 599 -34 770 -116 274 -131 410 -429
534 -1169 95 -565 130 -855 138 -1137 9 -295 -20 -480 -99 -648 -33 -68 -57
-101 -122 -166 -69 -70 -96 -89 -186 -132 -241 -116 -571 -168 -1153 -180
-592 -13 -1155 12 -1398 63 -300 63 -508 164 -604 294 -158 216 -192 635 -104
1286 80 589 166 1045 240 1275 39 119 117 278 172 350 81 105 234 197 383 230
132 30 277 43 549 49 430 11 498 11 880 1z"/>
<path d="M1825 3885 c-49 -19 -93 -59 -111 -102 -22 -50 -18 -223 6 -319 42
-167 142 -322 281 -436 228 -187 558 -240 845 -137 199 72 379 225 466 394 56
109 87 212 95 321 5 69 3 87 -16 129 -34 76 -69 115 -128 142 -62 29 -107 27
-174 -7 -61 -32 -88 -81 -100 -186 -25 -228 -179 -381 -410 -408 -117 -14
-269 38 -355 122 -65 64 -94 128 -104 227 -8 82 -21 116 -67 186 -46 70 -149
103 -228 74z"/>
</g>
</svg>
